<?xml version="1.0" encoding="utf-8"?>
<!-- Generator: Adobe Illustrator 19.0.0, SVG Export Plug-In . SVG Version: 6.00 Build 0)  -->
<svg version="1.1" id="Layer_1" xmlns="http://www.w3.org/2000/svg" xmlns:xlink="http://www.w3.org/1999/xlink" x="0px" y="0px"
	 viewBox="0 0 150 150" style="enable-background:new 0 0 150 150;" xml:space="preserve">
<style type="text/css">
	.st0{fill:#372F90;}
	.st1{fill:#FCAF17;}
	.st2{fill:#FFFFFF;}
	.st3{fill:none;}
</style>
<g id="XMLID_1_">
	<path id="XMLID_9_" class="st0" d="M131,141H19c-5.5,0-10-4.5-10-10V19c0-5.5,4.5-10,10-10h112c5.5,0,10,4.5,10,10v112
		C141,136.5,136.5,141,131,141z"/>
	<g id="XMLID_5_">
		<path id="XMLID_17_" class="st1" d="M84.4,88.3c-4.5,4.5-11.7,4.5-16.2,0c-1.3-1.3-3.4-1.3-4.7,0c-1.3,1.3-1.3,3.4,0,4.7
			c3.5,3.5,8.2,5.3,12.8,5.3c4.6,0,9.3-1.8,12.8-5.3c1.3-1.3,1.3-3.4,0-4.7C87.8,87,85.7,87,84.4,88.3z"/>
		<path id="XMLID_21_" class="st2" d="M112,114.8l-14.2-14.2c9.2-11.7,7.9-24.9-0.2-34.5c-5.4-6.4-13.2-10.4-21.6-10.4
			c-7.7,0-14.9,3.1-20.1,8.8c-9.6,10.3-9.7,26.4-0.4,36.9c5.3,5.9,12.6,9.2,20.5,9.2c4.6,0,10.7-0.8,15.8-5l14.2,14.2l2.3,2.3
			c0.7,0.7,1.5,1,2.5,1h5.4c1.5,0,2.2-1.8,1.2-2.8L112,114.8z M90.7,97.7c-3.9,3.9-9.1,6.1-14.6,6.1c-5.5,0-10.7-2.2-14.6-6.1
			c-8.1-8.1-8.1-21.2,0-29.3c3.9-3.9,9.1-6.1,14.7-6.1c5.5,0,10.7,2.2,14.6,6.1C98.8,76.4,98.8,89.6,90.7,97.7z"/>
		<g id="XMLID_22_">
			<path id="XMLID_24_" class="st3" d="M36.1,24.4c-4.6,3.3-5.7,9.8-2.4,14.5c3.3,4.6,9.8,5.7,14.5,2.4c4.6-3.3,5.7-9.8,2.4-14.5
				C47.2,22.2,40.7,21.1,36.1,24.4z"/>
			<path id="XMLID_25_" class="st1" d="M28.8,60c-0.8,0.6-1.3,1.6-1.3,2.7v57c0,1.9,1.5,3.4,3.4,3.4h64.8c1,0,1.5-1.2,0.8-1.9
				l-4.1-4.1c-0.5-0.5-1.2-0.8-1.9-0.8H34.2v-52v0v0l9.7-7.3c-2.3-0.9-4.7-2-6.9-3.2L28.8,60z"/>
			<path id="XMLID_26_" class="st1" d="M122.6,60L77.7,26.1c-1.2-0.9-2.8-0.9-4,0l-10.2,7.7c0.4,2.5,0.7,5.2,0.9,7.7L75.7,33
				l41.5,31.3v42.8c0,0.7,0.3,1.3,0.7,1.8l4,4c0.7,0.7,2,0.2,2-0.8V62.6C124,61.6,123.5,60.6,122.6,60z"/>
		</g>
	</g>
</g>
<path id="XMLID_2_" class="st1" d="M114.7,43.7L114.7,43.7c-1.8,0-3.4-1.5-3.4-3.4v-18c0-1.8,1.5-3.4,3.4-3.4h0
	c1.8,0,3.4,1.5,3.4,3.4v18C118,42.2,116.5,43.7,114.7,43.7z"/>
<path id="XMLID_3_" class="st1" d="M102.3,31.3L102.3,31.3c0-1.8,1.5-3.4,3.4-3.4h18c1.8,0,3.4,1.5,3.4,3.4v0c0,1.8-1.5,3.4-3.4,3.4
	h-18C103.8,34.7,102.3,33.2,102.3,31.3z"/>
<g id="XMLID_6_">
	<path id="XMLID_7_" class="st3" d="M39.8,39.1c0,1.2,0.3,2.3,0.8,3.3L52,33.8c-1.3-1.2-3-1.9-4.9-1.9C43,31.8,39.8,35.1,39.8,39.1z
		"/>
</g>
<g id="XMLID_11_">
	<g id="XMLID_12_">
		<path id="XMLID_13_" class="st2" d="M37.9,27.6c-5.5,3.9-6.7,11.6-2.8,17.1c4.9,6.8,20.9,10.4,21.6,10.6c0.6,0.1,1.3-0.3,1.3-1
			c0.1-0.7,1.8-17-3-23.8C51,24.9,43.3,23.6,37.9,27.6z M48.6,42.5c-2.8,2-6.6,1.3-8.6-1.4c-2-2.8-1.3-6.6,1.4-8.6s6.6-1.3,8.6,1.4
			C51.9,36.7,51.3,40.5,48.6,42.5z"/>
	</g>
</g>
</svg>
